<svg width="114" height="66" viewBox="0 0 114 66" fill="none" xmlns="http://www.w3.org/2000/svg">
<path d="M26.8 12.3V3.79999H0V62.2H26.8V53.7C21.31 53.7 16.0448 51.519 12.1629 47.637C8.28088 43.755 6.1 38.49 6.1 33C6.1 27.51 8.28088 22.2448 12.1629 18.3629C16.0448 14.4809 21.31 12.3 26.8 12.3Z" fill="#394149"/>
<path d="M26.7969 12.3V53.7C32.2869 53.7 37.5521 51.519 41.4341 47.637C45.3161 43.755 47.4969 38.49 47.4969 33C47.4969 27.51 45.3161 22.2448 41.4341 18.3629C37.5521 14.4809 32.2869 12.3 26.7969 12.3Z" fill="#394149"/>
<path d="M59.4968 41.7273V24.2727H71.2582V27.3153H63.1872V31.4744H70.6531V34.517H63.1872V38.6846H71.2923V41.7273H59.4968Z" fill="#394149"/>
<path d="M74.1921 41.7273V24.2727H81.0785C82.3967 24.2727 83.5217 24.5085 84.4535 24.9801C85.391 25.446 86.1041 26.1079 86.5927 26.9659C87.087 27.8182 87.3342 28.821 87.3342 29.9744C87.3342 31.1335 87.0842 32.1307 86.5842 32.9659C86.0842 33.7954 85.3598 34.4318 84.4109 34.875C83.4677 35.3182 82.3257 35.5398 80.9848 35.5398H76.374V32.5738H80.3882C81.0927 32.5738 81.6779 32.4773 82.1438 32.2841C82.6098 32.0909 82.9563 31.8011 83.1836 31.4148C83.4166 31.0284 83.533 30.5483 83.533 29.9744C83.533 29.3949 83.4166 28.9062 83.1836 28.5085C82.9563 28.1108 82.6069 27.8096 82.1353 27.6051C81.6694 27.3949 81.0813 27.2898 80.3711 27.2898H77.8825V41.7273H74.1921ZM83.6183 33.7841L87.9563 41.7273H83.8825L79.6382 33.7841H83.6183Z" fill="#394149"/>
<path d="M89.9421 41.7273V24.2727H96.8285C98.1524 24.2727 99.2802 24.5255 100.212 25.0312C101.144 25.5312 101.854 26.2273 102.343 27.1193C102.837 28.0057 103.084 29.0284 103.084 30.1875C103.084 31.3466 102.834 32.3693 102.334 33.2557C101.834 34.142 101.11 34.8324 100.161 35.3267C99.2177 35.821 98.0757 36.0682 96.7348 36.0682H92.3455V33.1108H96.1382C96.8484 33.1108 97.4336 32.9886 97.8938 32.7443C98.3598 32.4943 98.7063 32.1505 98.9336 31.713C99.1666 31.2699 99.283 30.7613 99.283 30.1875C99.283 29.6079 99.1666 29.1023 98.9336 28.6704C98.7063 28.2329 98.3598 27.8949 97.8938 27.6562C97.4279 27.4119 96.837 27.2898 96.1211 27.2898H93.6325V41.7273H89.9421Z" fill="#394149"/>
</svg>
